<?xml version="1.0" encoding="UTF-8"?>
<svg width="91px" height="100px" viewBox="0 0 91 100" version="1.1" xmlns="http://www.w3.org/2000/svg" xmlns:xlink="http://www.w3.org/1999/xlink">
    <title>Group 3</title>
    <defs>
        <polygon id="path-1" points="0 0 20.8884463 0 20.8884463 18.0631579 0 18.0631579"></polygon>
        <linearGradient x1="50%" y1="0%" x2="50%" y2="100%" id="linearGradient-3">
            <stop stop-color="#3FF497" offset="0%"></stop>
            <stop stop-color="#16A085" offset="100%"></stop>
        </linearGradient>
    </defs>
    <g id="MAIN" stroke="none" stroke-width="1" fill="none" fill-rule="evenodd">
        <g id="7.1.02a" transform="translate(-338.000000, -232.000000)">
            <g id="Group-6" transform="translate(338.000000, 232.000000)">
                <g id="Group-2" transform="translate(32.701960, 0.000000)" fill-rule="nonzero" stroke="#2E3F51" stroke-width="3">
                    <g id="Group-2-Copy">
                        <ellipse id="Oval" cx="29.6885313" cy="89.3263158" rx="4.12271967" ry="4.10526316"></ellipse>
                        <g id="Group">
                            <path d="M50.2980403,1.5 C52.0929657,1.5 53.7179657,2.22753728 54.8942344,3.40380592 C56.070503,4.58007456 56.7980403,6.20507456 56.7980403,8 L56.7980403,8 L56.7980403,92 C56.7980403,93.7949254 56.070503,95.4199254 54.8942344,96.5961941 C53.7179657,97.7724627 52.0929657,98.5 50.2980403,98.5 L50.2980403,98.5 L8,98.5 C6.20507456,98.5 4.58007456,97.7724627 3.40380592,96.5961941 C2.22753728,95.4199254 1.5,93.7949254 1.5,92 L1.5,92 L1.5,8 C1.5,6.20507456 2.22753728,4.58007456 3.40380592,3.40380592 C4.58007456,2.22753728 6.20507456,1.5 8,1.5 L8,1.5 Z" id="Rectangle-3"></path>
                        </g>
                    </g>
                </g>
                <path d="M81.4272388,11.5210526 C82.1175948,11.5210526 82.7425948,11.8008747 83.1950058,12.2532857 C83.6474168,12.7056967 83.9272388,13.3306967 83.9272388,14.0210526 L83.9272388,14.0210526 L83.9272388,77.9368421 C83.9272388,78.627198 83.6474168,79.252198 83.1950058,79.7046091 C82.7425948,80.1570201 82.1175948,80.4368421 81.4272388,80.4368421 L81.4272388,80.4368421 L42.2543512,80.4368421 C41.5639953,80.4368421 40.9389953,80.1570201 40.4865843,79.7046091 C40.0341732,79.252198 39.7543512,78.627198 39.7543512,77.9368421 L39.7543512,77.9368421 L39.7543512,14.0210526 C39.7543512,13.3306967 40.0341732,12.7056967 40.4865843,12.2532857 C40.9389953,11.8008747 41.5639953,11.5210526 42.2543512,11.5210526 L42.2543512,11.5210526 Z" id="Rectangle-9" stroke="#2E3F51" stroke-width="3" fill-rule="nonzero"></path>
                <g id="Group-3" transform="translate(51.121724, 32.673684)">
                    <mask id="mask-2" fill="white">
                        <use xlink:href="#path-1"></use>
                    </mask>
                    <g id="Clip-2"></g>
                </g>
                <g id="Group-5" transform="translate(0.000000, 38.694737)">
                    <path d="M1.87252738,14.6439824 L1.87252738,5.13461114 C1.87252738,2.31054621 4.48627165,0 7.68105073,0 L47.8656996,0 C51.0603484,0 53.674223,2.31054621 53.674223,5.13461114 L53.674223,15.6297724 C53.674223,18.4537221 51.0603484,20.7643836 47.8656996,20.7643836 L7.68105073,20.7643836 C6.31722206,20.7643836 5.06013801,20.3423465 4.06620095,19.6398732 C1.37881723,20.9433144 0,20.5968592 0,20.5968592 C1.87252738,19.9055618 1.87252738,14.6439824 1.87252738,14.6439824 Z" id="Fill-1" fill="url(#linearGradient-3)"></path>
                    <line x1="10.0461675" y1="7.8" x2="44.9234281" y2="7.8" id="Line" stroke="#FFFFFF" stroke-width="2.5" stroke-linecap="round" fill-rule="nonzero"></line>
                    <line x1="10.0836699" y1="13.3649123" x2="38.2038689" y2="13.3649123" id="Line-Copy-2" stroke="#FFFFFF" stroke-width="3" stroke-linecap="round" fill-rule="nonzero"></line>
                </g>
            </g>
        </g>
    </g>
</svg>